<svg width="35" height="24" viewBox="0 0 35 24" fill="none" xmlns="http://www.w3.org/2000/svg">
<g clip-path="url(#clip0_1_58)">
<path fill-rule="evenodd" clip-rule="evenodd" d="M17.4147 6.36076e-06C13.3597 -0.00296524 9.43568 1.03535 6.34594 2.92889C3.2562 4.82242 1.2027 7.4474 0.553436 10.3334C-0.095829 13.2194 0.701579 16.1778 2.80276 18.6784C4.90394 21.179 8.17156 23.0584 12.02 23.9798C12.879 24.0931 13.1828 23.7079 13.1828 23.3831C13.1828 23.0584 13.1828 22.3182 13.1828 21.291C8.41654 22.0387 7.41092 19.637 7.41092 19.637C7.09473 18.8926 6.42298 18.2531 5.51491 17.8319C3.97505 17.0766 5.64061 17.0766 5.64061 17.0766C6.1804 17.1316 6.69576 17.2744 7.14766 17.4942C7.59956 17.7141 7.97617 18.0052 8.24893 18.3455C8.48071 18.6485 8.79319 18.9155 9.16845 19.1312C9.54371 19.347 9.97436 19.5071 10.4357 19.6026C10.897 19.698 11.3799 19.7268 11.8567 19.6874C12.3335 19.6479 12.7948 19.541 13.2142 19.3726C13.2799 18.7513 13.6514 18.1674 14.2617 17.7262C10.4697 17.4165 6.48911 16.3591 6.48911 11.684C6.46307 10.4627 7.08942 9.28099 8.23847 8.38349C7.72671 7.3216 7.78652 6.15988 8.40607 5.12828C8.40607 5.12828 9.84117 4.79596 13.099 6.38958C15.8965 5.83579 18.8492 5.83579 21.6467 6.38958C24.9045 4.79596 26.3291 5.12828 26.3291 5.12828C26.9574 6.14897 27.032 7.30235 26.5386 8.36083C27.6877 9.25834 28.314 10.4401 28.288 11.6614C28.288 16.3893 24.297 17.4241 20.4944 17.7035C20.9021 17.999 21.217 18.3543 21.4176 18.7452C21.6182 19.1361 21.7 19.5536 21.6572 19.9693C21.6572 21.6158 21.6572 22.9451 21.6572 23.3454C21.6572 23.7456 21.9609 24.0553 22.8305 23.9345C26.6351 22.9888 29.8538 21.1041 31.9178 18.6132C33.9819 16.1223 34.7585 13.1856 34.1105 10.3219C33.4626 7.45814 31.4316 4.85167 28.3766 2.96295C25.3216 1.07422 21.439 0.024771 17.4147 6.36076e-06Z" fill="url(#paint0_linear_1_58)"/>
</g>
<defs>
<linearGradient id="paint0_linear_1_58" x1="5.22075" y1="3.45" x2="21.4024" y2="28.3912" gradientUnits="userSpaceOnUse">
<stop stop-color="#FFAD33"/>
<stop offset="1" stop-color="#FF8A00"/>
</linearGradient>
<clipPath id="clip0_1_58">
<rect width="34" height="24" fill="white" transform="translate(0.333252)"/>
</clipPath>
</defs>
</svg>
