<svg width="34" height="24" viewBox="0 0 34 24" fill="none" xmlns="http://www.w3.org/2000/svg">
<g clip-path="url(#clip0_1_74)">
<path fill-rule="evenodd" clip-rule="evenodd" d="M19.9325 1.19512C20.1526 1.46555 20.2948 1.76406 20.3507 2.07344C20.4067 2.38283 20.3754 2.69697 20.2586 2.99777C20.1417 3.29857 19.9418 3.58008 19.6701 3.82608C19.3985 4.07208 19.0606 4.27771 18.6759 4.43112L8.60341 8.47112C8.47306 8.5233 8.36457 8.59889 8.28894 8.69021C8.21331 8.78153 8.17322 8.88534 8.17275 8.99112V15.3341C8.17322 15.4399 8.21331 15.5437 8.28894 15.635C8.36457 15.7263 8.47306 15.8019 8.60341 15.8541L16.5764 19.0531C16.7055 19.1049 16.8515 19.1322 17 19.1322C17.1485 19.1322 17.2945 19.1049 17.4236 19.0531L25.3966 15.8551C25.5271 15.8028 25.6358 15.7271 25.7114 15.6356C25.7871 15.5441 25.827 15.4401 25.8272 15.3341V11.3901L18.6589 14.2281C17.8789 14.5371 16.9575 14.6159 16.0956 14.4473C15.2336 14.2787 14.501 13.8764 14.0576 13.3281C13.8398 13.0569 13.7002 12.7579 13.6468 12.4484C13.5934 12.1389 13.6273 11.825 13.7464 11.5248C13.8656 11.2246 14.0677 10.944 14.3412 10.6991C14.6146 10.4543 14.9539 10.25 15.3397 10.0981L25.5949 6.03612C28.7187 4.80012 32.5833 6.38312 32.5833 8.90112V15.8151C32.5833 17.4351 31.3466 18.9301 29.3434 19.7341L20.1903 23.4051C19.2178 23.795 18.1185 24 17 24C15.8815 24 14.7822 23.795 13.8097 23.4051L4.65658 19.7341C3.67401 19.3413 2.85651 18.7717 2.28737 18.0833C1.71823 17.3948 1.41779 16.6122 1.41666 15.8151V8.51012C1.41666 6.89012 2.65341 5.39512 4.65658 4.59212L15.3241 0.312117C16.1018 0.000134438 17.0228 -0.0821194 17.8861 0.0832947C18.7494 0.248709 19.485 0.648371 19.9325 1.19512Z" fill="url(#paint0_linear_1_74)"/>
</g>
<defs>
<linearGradient id="paint0_linear_1_74" x1="24.8738" y1="3.62912" x2="15.6432" y2="24.3041" gradientUnits="userSpaceOnUse">
<stop stop-color="#FFB45B"/>
<stop offset="1" stop-color="#FF8A00"/>
</linearGradient>
<clipPath id="clip0_1_74">
<rect width="34" height="24" fill="white"/>
</clipPath>
</defs>
</svg>
