<svg width="34" height="24" viewBox="0 0 34 24" fill="none" xmlns="http://www.w3.org/2000/svg">
<g clip-path="url(#clip0_1_62)">
<path fill-rule="evenodd" clip-rule="evenodd" d="M0 11.7908C0 5.2781 7.76553 0 16.9885 0C26.2017 0 33.6889 5.48618 33.6889 11.9965C33.6889 18.5069 26.2083 23.9884 16.9853 23.9884L0 24V11.7908ZM8.26002 8.13398C10.1264 5.9215 13.5041 4.56533 17.1522 4.56381H17.1619C21.3871 4.56526 25.1872 6.37901 26.763 9.14636C28.3387 11.9137 27.374 15.0793 24.3254 17.1445C21.2769 19.2096 16.7565 19.7599 12.9041 18.5347L6.17684 19.6074L8.05027 15.3535C6.31397 13.0889 6.39366 10.3465 8.26002 8.13398Z" fill="url(#paint0_linear_1_62)"/>
</g>
<defs>
<linearGradient id="paint0_linear_1_62" x1="4.84278" y1="3.45" x2="21.0846" y2="28.2549" gradientUnits="userSpaceOnUse">
<stop stop-color="#FFAD33"/>
<stop offset="1" stop-color="#FF8A00"/>
</linearGradient>
<clipPath id="clip0_1_62">
<rect width="34" height="24" fill="white"/>
</clipPath>
</defs>
</svg>
