<svg width="35" height="24" viewBox="0 0 35 24" fill="none" xmlns="http://www.w3.org/2000/svg">
<g clip-path="url(#clip0_1_66)">
<path fill-rule="evenodd" clip-rule="evenodd" d="M0.666626 12C0.666626 5.37258 8.27778 0 17.6666 0C27.0554 0 34.6666 5.37258 34.6666 12C34.6666 18.6274 27.0554 24 17.6666 24C8.27778 24 0.666626 18.6274 0.666626 12ZM17.1575 9.75375L17.1932 10.169L16.5986 10.1181C14.4344 9.92323 12.5437 9.26226 10.9384 8.15216L10.1536 7.60135L9.95144 8.0081C9.52336 8.91482 9.79686 9.87239 10.6887 10.5164C11.1643 10.8723 11.0573 10.9232 10.2368 10.7113C9.95145 10.6435 9.70173 10.5927 9.67794 10.6181C9.59471 10.6774 9.8801 11.4486 10.106 11.7536C10.4152 12.1773 11.0454 12.5925 11.7351 12.8383L12.3178 13.0332L11.6281 13.0417C10.9622 13.0417 10.9384 13.0501 11.0098 13.2281C11.2476 13.7789 12.187 14.3636 13.2334 14.6178L13.9707 14.7958L13.3285 15.067C12.3772 15.4568 11.2595 15.6771 10.1417 15.694C9.6066 15.7025 9.16663 15.7364 9.16663 15.7618C9.16663 15.8466 10.6173 16.3211 11.4616 16.5075C13.9944 17.0584 17.0029 16.8211 19.2622 15.8805C20.8676 15.211 22.4728 13.8806 23.2219 12.5925C23.6263 11.9062 24.0306 10.652 24.0306 10.0503C24.0306 9.66054 24.0663 9.60969 24.7321 9.14362C25.1245 8.87245 25.4931 8.57586 25.5645 8.49112C25.6834 8.33011 25.6715 8.33011 25.065 8.47417C24.0544 8.72839 23.9117 8.6945 24.4111 8.31317C24.7797 8.042 25.2197 7.5505 25.2197 7.40645C25.2197 7.38102 25.0414 7.42339 24.8392 7.49966C24.6252 7.5844 24.1494 7.71151 23.7927 7.78778L23.1507 7.93184L22.568 7.65219C22.2469 7.49966 21.7951 7.33018 21.5572 7.27934C20.9507 7.1607 20.0233 7.17765 19.4763 7.31323C17.9899 7.69456 17.0505 8.67755 17.1575 9.75375Z" fill="url(#paint0_linear_1_66)"/>
</g>
<defs>
<linearGradient id="paint0_linear_1_66" x1="5.55413" y1="3.45" x2="21.7357" y2="28.3912" gradientUnits="userSpaceOnUse">
<stop stop-color="#FFAD33"/>
<stop offset="1" stop-color="#FF8A00"/>
</linearGradient>
<clipPath id="clip0_1_66">
<rect width="34" height="24" fill="white" transform="translate(0.666626)"/>
</clipPath>
</defs>
</svg>
