<svg width="27" height="27" viewBox="0 0 27 27" fill="none" xmlns="http://www.w3.org/2000/svg">
<g clip-path="url(#clip0_1_909)">
<path d="M24.8993 3.56943C21.9909 -0.0229459 16.2008 -1.07549 12.0383 1.18977L4.70061 5.21688C2.69942 6.29231 1.31193 8.05417 0.911689 10.0449C0.564816 11.7152 0.858324 13.4313 1.79221 14.9186C1.15183 15.7423 0.724911 16.6576 0.538133 17.6186C0.111213 19.655 0.671546 21.7601 2.05904 23.4304C4.99412 27.0228 10.7575 28.0754 14.92 25.8101L22.2577 21.8059C24.2589 20.7304 25.6464 18.9686 26.0466 16.9779C26.3935 15.3076 26.1 13.5915 25.1661 12.1042C25.8065 11.2804 26.2334 10.3652 26.4202 9.40417C26.8738 7.34485 26.3135 5.23977 24.8993 3.56943Z" fill="#FF3E00"/>
<path d="M11.3178 23.7738C8.94306 24.3 6.46158 23.4992 5.07409 21.7831C4.22025 20.7763 3.90005 19.5178 4.1402 18.2822C4.19356 18.0763 4.24693 17.8932 4.30029 17.6873L4.43371 17.3212L4.80726 17.55C5.68778 18.0992 6.64836 18.511 7.68898 18.7856L7.9558 18.8543L7.92912 19.0831C7.90244 19.4034 8.00917 19.7466 8.22263 20.0212C8.64955 20.5475 9.39666 20.7992 10.1171 20.639C10.2772 20.5932 10.4373 20.5475 10.5707 20.4788L17.8817 16.4746C18.2553 16.2687 18.4954 15.9712 18.5755 15.6051C18.6555 15.239 18.5488 14.85 18.3086 14.5526C17.8817 14.0263 17.1346 13.7975 16.4142 13.9576C16.2541 14.0034 16.094 14.0492 15.9606 14.1178L13.1589 15.6509C12.7053 15.9026 12.1983 16.0856 11.6647 16.2C9.28993 16.7263 6.80845 15.9254 5.42096 14.2093C4.5938 13.2026 4.24693 11.9441 4.51375 10.7085C4.7539 9.51867 5.60774 8.44324 6.80845 7.80257L14.1461 3.79833C14.5998 3.54663 15.1067 3.36358 15.6404 3.22629C18.0151 2.70002 20.4966 3.50087 21.8841 5.21697C22.7379 6.22375 23.0581 7.48223 22.818 8.71782C22.7646 8.92375 22.7112 9.1068 22.6312 9.31273L22.4978 9.67884L22.1242 9.45002C21.2437 8.90087 20.2831 8.48901 19.2425 8.21443L18.9757 8.14579L19.0024 7.91697C19.0291 7.59663 18.9223 7.25341 18.7089 6.97884C18.2819 6.45257 17.5348 6.22375 16.8144 6.38392C16.6543 6.42968 16.4942 6.47545 16.3608 6.54409L9.04979 10.5483C8.67623 10.7543 8.43609 11.0517 8.35604 11.4178C8.27599 11.7839 8.38272 12.1729 8.62286 12.4704C9.04978 12.9966 9.7969 13.2254 10.5173 13.0653C10.6774 13.0195 10.8375 12.9738 10.9709 12.9051L13.7726 11.3721C14.2262 11.1204 14.7332 10.9373 15.2668 10.8C17.6416 10.2738 20.123 11.0746 21.5105 12.7907C22.3644 13.7975 22.6846 15.056 22.4444 16.2915C22.2043 17.4814 21.3504 18.5568 20.1497 19.1975L12.812 23.2017C12.3584 23.4534 11.8515 23.6365 11.3178 23.7738Z" fill="white"/>
</g>
<defs>
<clipPath id="clip0_1_909">
<rect width="26.1756" height="27" fill="white" transform="translate(0.404663)"/>
</clipPath>
</defs>
</svg>
