<svg width="27" height="27" viewBox="0 0 27 27" fill="none" xmlns="http://www.w3.org/2000/svg">
<g clip-path="url(#clip0_1_922)">
<path d="M24.024 0H2.96087C1.54912 0 0.404663 1.1805 0.404663 2.63672V24.3633C0.404663 25.8195 1.54912 27 2.96087 27H24.024C25.4358 27 26.5802 25.8195 26.5802 24.3633V2.63672C26.5802 1.1805 25.4358 0 24.024 0Z" fill="#3178C6"/>
<path d="M24.024 0H2.96087C1.54912 0 0.404663 1.1805 0.404663 2.63672V24.3633C0.404663 25.8195 1.54912 27 2.96087 27H24.024C25.4358 27 26.5802 25.8195 26.5802 24.3633V2.63672C26.5802 1.1805 25.4358 0 24.024 0Z" fill="#3178C6"/>
<path fill-rule="evenodd" clip-rule="evenodd" d="M16.6079 21.4853V24.1252C17.024 24.3452 17.516 24.5101 18.0841 24.6202C18.6522 24.7302 19.2509 24.7852 19.8804 24.7852C20.4938 24.7852 21.0765 24.7247 21.6286 24.6036C22.1807 24.4827 22.6648 24.2833 23.0808 24.0055C23.4969 23.7278 23.8263 23.3648 24.069 22.9166C24.3117 22.4683 24.433 21.9142 24.433 21.2543C24.433 20.7758 24.3637 20.3564 24.225 19.9962C24.0863 19.636 23.8863 19.3156 23.6249 19.0351C23.3636 18.7546 23.0502 18.503 22.6848 18.2802C22.3194 18.0575 21.9073 17.8471 21.4486 17.6491C21.1126 17.5061 20.8112 17.3673 20.5445 17.2325C20.2778 17.0977 20.0511 16.9603 19.8644 16.8201C19.6777 16.6798 19.5336 16.5313 19.4323 16.3746C19.331 16.2178 19.2803 16.0404 19.2803 15.8424C19.2803 15.6609 19.3256 15.4973 19.4163 15.3516C19.507 15.2058 19.635 15.0807 19.8004 14.9762C19.9657 14.8717 20.1684 14.7906 20.4084 14.7328C20.6485 14.6751 20.9152 14.6462 21.2086 14.6462C21.4219 14.6462 21.6473 14.6627 21.8846 14.6957C22.122 14.7287 22.3607 14.7796 22.6008 14.8483C22.8408 14.9171 23.0741 15.0037 23.3009 15.1082C23.5276 15.2127 23.7369 15.3337 23.9289 15.4712V13.0045C23.5396 12.8505 23.1142 12.7364 22.6528 12.6622C22.1914 12.5879 21.6619 12.5508 21.0646 12.5508C20.4564 12.5508 19.8804 12.6182 19.3363 12.7529C18.7922 12.8876 18.3135 13.098 17.9001 13.384C17.4867 13.67 17.16 14.0344 16.92 14.4771C16.6799 14.9198 16.5599 15.4492 16.5599 16.0652C16.5599 16.8516 16.7799 17.5226 17.22 18.0781C17.66 18.6336 18.3281 19.1038 19.2243 19.4888C19.5763 19.6373 19.9044 19.783 20.2084 19.9261C20.5125 20.0691 20.7752 20.2176 20.9965 20.3716C21.2179 20.5255 21.3926 20.6933 21.5206 20.8748C21.6486 21.0563 21.7127 21.2625 21.7127 21.4935C21.7127 21.664 21.6726 21.8221 21.5926 21.9679C21.5126 22.1136 21.3912 22.2401 21.2286 22.3474C21.0659 22.4546 20.8632 22.5385 20.6205 22.5989C20.3778 22.6595 20.0938 22.6897 19.7684 22.6897C19.2136 22.6897 18.6642 22.5893 18.1201 22.3886C17.576 22.1879 17.072 21.8868 16.6079 21.4853ZM12.3053 14.9809H15.5885V12.8145H6.43732V14.9809H9.70446V24.627H12.3053V14.9809Z" fill="white"/>
</g>
<defs>
<clipPath id="clip0_1_922">
<rect width="26.1756" height="27" fill="white" transform="translate(0.404663)"/>
</clipPath>
</defs>
</svg>
