<svg width="27" height="27" viewBox="0 0 27 27" fill="none" xmlns="http://www.w3.org/2000/svg">
<g clip-path="url(#clip0_1_881)">
<path d="M13.3981 0C6.75311 4.91597e-07 7.16806 2.98799 7.16806 2.98799L7.17547 6.08351H13.5166V7.01294H4.65679C4.65679 7.01294 0.404663 6.51292 0.404663 13.4651C0.404663 20.4174 4.11601 20.1708 4.11601 20.1708H6.33097V16.9447C6.33097 16.9447 6.21158 13.0964 9.98306 13.0964C13.7545 13.0964 16.2724 13.0964 16.2724 13.0964C16.2724 13.0964 19.8059 13.1557 19.8059 9.55541C19.8059 5.95515 19.8059 3.60248 19.8059 3.60248C19.8059 3.60248 20.3424 0 13.3981 0ZM9.90157 2.08161C10.5325 2.0816 11.0424 2.61034 11.0424 3.26451C11.0424 3.91869 10.5325 4.44742 9.90157 4.44742C9.27067 4.44742 8.76076 3.91869 8.76076 3.26451C8.76076 2.61034 9.27067 2.08161 9.90157 2.08161Z" fill="url(#paint0_linear_1_881)"/>
<path d="M13.5868 27C20.2318 27 19.8168 24.0121 19.8168 24.0121L19.8094 20.9165H13.4683V19.9871H22.3281C22.3281 19.9871 26.5802 20.4871 26.5802 13.5349C26.5802 6.58267 22.8689 6.82921 22.8689 6.82921H20.6539V10.0553C20.6539 10.0553 20.7733 13.9036 17.0018 13.9036C13.2304 13.9036 10.7125 13.9036 10.7125 13.9036C10.7125 13.9036 7.17898 13.8444 7.17898 17.4446C7.17898 21.0449 7.17898 23.3976 7.17898 23.3976C7.17898 23.3976 6.64249 27 13.5868 27ZM17.0833 24.9184C16.4524 24.9184 15.9425 24.3897 15.9425 23.7355C15.9425 23.0814 16.4524 22.5526 17.0833 22.5526C17.7142 22.5526 18.2241 23.0814 18.2241 23.7355C18.2241 24.3897 17.7142 24.9184 17.0833 24.9184Z" fill="url(#paint1_linear_1_881)"/>
</g>
<defs>
<linearGradient id="paint0_linear_1_881" x1="2.92019" y1="2.36004" x2="16.3336" y2="15.3394" gradientUnits="userSpaceOnUse">
<stop stop-color="#387EB8"/>
<stop offset="1" stop-color="#366994"/>
</linearGradient>
<linearGradient id="paint1_linear_1_881" x1="10.8822" y1="10.9262" x2="25.2642" y2="24.2146" gradientUnits="userSpaceOnUse">
<stop stop-color="#FFE052"/>
<stop offset="1" stop-color="#FFC331"/>
</linearGradient>
<clipPath id="clip0_1_881">
<rect width="26.1756" height="27" fill="white" transform="translate(0.404663)"/>
</clipPath>
</defs>
</svg>
