<svg width="27" height="27" viewBox="0 0 27 27" fill="none" xmlns="http://www.w3.org/2000/svg">
<path d="M13.3198 4.43994C8.58274 4.43994 4.72729 8.41869 4.72729 13.3031C4.72729 18.1874 8.58456 22.1662 13.3198 22.1662C18.055 22.1662 21.9123 18.1874 21.9123 13.3031C21.9123 8.41869 18.055 4.43994 13.3198 4.43994ZM13.3071 5.22744C13.454 5.23137 13.5936 5.29453 13.6962 5.40347C13.7987 5.5124 13.8561 5.65848 13.856 5.81057C13.856 5.96522 13.7965 6.11354 13.6904 6.2229C13.5844 6.33226 13.4406 6.39369 13.2907 6.39369C13.1408 6.39369 12.997 6.33226 12.891 6.2229C12.7849 6.11354 12.7254 5.96522 12.7254 5.81057C12.7254 5.73255 12.7405 5.65532 12.7699 5.58345C12.7994 5.51158 12.8425 5.44653 12.8967 5.39215C12.9509 5.33778 13.0152 5.29518 13.0857 5.26689C13.1562 5.2386 13.2315 5.22518 13.3071 5.22744ZM14.6013 6.18744C15.5937 6.37918 16.5338 6.79146 17.3562 7.39565C18.1786 7.99983 18.8637 8.78144 19.3638 9.68619L18.6967 11.2387C18.5822 11.5068 18.7003 11.8218 18.9584 11.9418L20.2418 12.5287C20.2816 12.9425 20.2865 13.359 20.2563 13.7737H19.5419C19.4711 13.7737 19.442 13.8224 19.442 13.8937V14.2312C19.442 15.0262 19.0075 15.2006 18.6258 15.2437C18.2622 15.2868 17.8605 15.0862 17.8096 14.8574C17.5951 13.6143 17.2389 13.3499 16.6754 12.8906C17.3752 12.4331 18.1023 11.7562 18.1023 10.8524C18.1023 9.87557 17.4534 9.26057 17.0116 8.95869C16.39 8.53682 15.7029 8.45244 15.5174 8.45244H8.13739C9.15788 7.27652 10.5257 6.48043 12.0292 6.18744L12.8999 7.12869C13.0962 7.34057 13.4216 7.34994 13.627 7.14557L14.6013 6.18744ZM6.56686 10.5037C6.71393 10.5081 6.85356 10.5715 6.95606 10.6803C7.05857 10.7892 7.11588 10.935 7.11582 11.0868C7.11582 11.2415 7.05626 11.3898 6.95024 11.4991C6.84422 11.6085 6.70043 11.6699 6.5505 11.6699C6.40056 11.6699 6.25677 11.6085 6.15075 11.4991C6.04474 11.3898 5.98518 11.2415 5.98518 11.0868C5.98515 11.0088 6.00029 10.9316 6.02972 10.8597C6.05915 10.7878 6.10226 10.7228 6.1565 10.6684C6.21074 10.614 6.275 10.5714 6.34549 10.5431C6.41598 10.5148 6.49125 10.5014 6.56686 10.5037ZM20.0455 10.5299C20.1925 10.5343 20.3322 10.5977 20.4347 10.7066C20.5372 10.8155 20.5945 10.9613 20.5944 11.1131C20.5944 11.2677 20.5349 11.416 20.4288 11.5254C20.3228 11.6348 20.179 11.6962 20.0291 11.6962C19.8792 11.6962 19.7354 11.6348 19.6294 11.5254C19.5233 11.416 19.4638 11.2677 19.4638 11.1131C19.4637 11.035 19.4789 10.9578 19.5083 10.8859C19.5377 10.8141 19.5809 10.749 19.6351 10.6947C19.6893 10.6403 19.7536 10.5977 19.8241 10.5694C19.8946 10.5411 19.9699 10.5277 20.0455 10.5299ZM7.63206 10.6237H8.61728V15.2062H6.62866C6.38306 14.3166 6.30652 13.3864 6.40326 12.4668L7.62115 11.9081C7.88109 11.7881 7.99924 11.4749 7.88291 11.2068L7.63206 10.6237ZM11.7438 10.6724H14.0905C14.2123 10.6724 14.9467 10.8168 14.9467 11.3849C14.9467 11.8556 14.3832 12.0243 13.9196 12.0243H11.742L11.7438 10.6724ZM11.7438 13.9649H13.5416C13.7052 13.9649 14.4195 14.0137 14.6467 14.9549C14.7176 15.2437 14.8758 16.1849 14.983 16.4868C15.0903 16.8243 15.5247 17.4993 15.9882 17.4993H18.9221C18.7255 17.7709 18.5104 18.0278 18.2786 18.2681L17.0843 18.0037C16.8062 17.9418 16.5318 18.1256 16.4718 18.4124L16.1882 19.7774C15.2763 20.2035 14.2861 20.4216 13.285 20.4167C12.284 20.4119 11.2957 20.1842 10.3878 19.7493L10.1042 18.3843C10.0442 18.0974 9.77155 17.9137 9.49343 17.9756L8.32462 18.2343C8.10772 18.0035 7.9061 17.758 7.72113 17.4993H13.4052C13.4688 17.4993 13.5125 17.4881 13.5125 17.4262V15.3524C13.5125 15.2924 13.4688 15.2793 13.4052 15.2793H11.742L11.7438 13.9649ZM9.12079 18.7143C9.26787 18.7187 9.40749 18.7821 9.51 18.891C9.6125 18.9998 9.66981 19.1457 9.66975 19.2974C9.66975 19.4521 9.61019 19.6004 9.50417 19.7098C9.39816 19.8191 9.25436 19.8806 9.10443 19.8806C8.9545 19.8806 8.81071 19.8191 8.70469 19.7098C8.59867 19.6004 8.53911 19.4521 8.53911 19.2974C8.53908 19.2194 8.55423 19.1422 8.58366 19.0703C8.61308 18.9985 8.65619 18.9334 8.71043 18.879C8.76467 18.8247 8.82894 18.7821 8.89943 18.7538C8.96991 18.7255 9.04519 18.7121 9.12079 18.7143ZM17.4915 18.7406C17.6386 18.745 17.7782 18.8083 17.8807 18.9172C17.9832 19.0261 18.0405 19.1719 18.0405 19.3237C18.0405 19.4783 17.9809 19.6267 17.8749 19.736C17.7689 19.8454 17.6251 19.9068 17.4752 19.9068C17.3252 19.9068 17.1814 19.8454 17.0754 19.736C16.9694 19.6267 16.9098 19.4783 16.9098 19.3237C16.9098 19.2457 16.925 19.1684 16.9544 19.0966C16.9838 19.0247 17.0269 18.9597 17.0812 18.9053C17.1354 18.8509 17.1997 18.8083 17.2702 18.78C17.3406 18.7517 17.4159 18.7383 17.4915 18.7406Z" fill="black"/>
<path fill-rule="evenodd" clip-rule="evenodd" d="M21.4324 13.3032C21.4324 15.5226 20.5776 17.6511 19.0562 19.2204C17.5348 20.7897 15.4713 21.6713 13.3197 21.6713C11.1681 21.6713 9.10467 20.7897 7.58326 19.2204C6.06185 17.6511 5.20713 15.5226 5.20713 13.3032C5.20713 11.0839 6.06185 8.95539 7.58326 7.38606C9.10467 5.81674 11.1681 4.9351 13.3197 4.9351C15.4713 4.9351 17.5348 5.81674 19.0562 7.38606C20.5776 8.95539 21.4324 11.0839 21.4324 13.3032ZM21.2797 12.4951L22.5448 13.3032L21.2797 14.1113L22.3667 15.1595L20.9743 15.6976L21.8432 16.9445L20.3726 17.192L20.9906 18.5907L19.5019 18.5363L19.8436 20.0326L18.3931 19.6801L18.4458 21.2157L17.0898 20.5782L16.8498 22.0951L15.641 21.1988L15.1193 22.6351L14.1032 21.5138L13.3197 22.8188L12.5363 21.5138L11.5202 22.6351L10.9985 21.1988L9.78967 22.0951L9.54973 20.5782L8.19369 21.2157L8.2464 19.6801L6.79584 20.0326L7.13758 18.5363L5.64884 18.5907L6.26688 17.192L4.79632 16.9445L5.6652 15.6976L4.27281 15.1595L5.35982 14.1113L4.09467 13.3032L5.35982 12.4951L4.27281 11.447L5.6652 10.9088L4.79632 9.66197L6.26688 9.41447L5.64884 8.01572L7.13758 8.0701L6.79584 6.57385L8.2464 6.92635L8.19369 5.39072L9.54973 6.02822L9.78967 4.51135L10.9985 5.4076L11.5202 3.97135L12.5363 5.0926L13.3197 3.7876L14.1032 5.0926L15.1193 3.97135L15.641 5.4076L16.8498 4.51135L17.0898 6.02822L18.4458 5.39072L18.3931 6.92635L19.8436 6.57385L19.5019 8.0701L20.9906 8.01572L20.3726 9.41447L21.8432 9.66197L20.9743 10.9088L22.3667 11.447L21.2797 12.4951Z" fill="black" stroke="black" stroke-width="3" stroke-linecap="round" stroke-linejoin="round"/>
</svg>
