<svg width="27" height="27" viewBox="0 0 27 27" fill="none" xmlns="http://www.w3.org/2000/svg">
<g clip-path="url(#clip0_1_936)">
<path fill-rule="evenodd" clip-rule="evenodd" d="M0.404663 0H26.5802V27H0.404663V0Z" fill="white"/>
<path fill-rule="evenodd" clip-rule="evenodd" d="M11.3189 14.2494C11.3189 14.2494 10.6937 14.6246 11.7643 14.7514C13.0617 14.9042 13.7244 14.8822 15.1537 14.6033C15.1537 14.6033 15.53 14.8463 16.0552 15.0566C12.8503 16.4731 8.80192 14.9746 11.3189 14.2494ZM10.9271 12.4009C10.9271 12.4009 10.2257 12.9364 11.2973 13.0507C12.6833 13.1983 13.7772 13.2103 15.6715 12.8344C15.6715 12.8344 15.933 13.1082 16.3446 13.2578C12.4702 14.4267 8.15512 13.3498 10.9271 12.4009Z" fill="#3174B9"/>
<path fill-rule="evenodd" clip-rule="evenodd" d="M14.2282 9.26479C15.0183 10.2029 14.0211 11.0465 14.0211 11.0465C14.0211 11.0465 16.0263 9.97902 15.1054 8.64174C14.2455 7.39522 13.5859 6.77595 17.1562 4.64038C17.156 4.64024 11.5518 6.08356 14.2282 9.26479Z" fill="#CA3132"/>
<path fill-rule="evenodd" clip-rule="evenodd" d="M18.4669 15.6171C18.4669 15.6171 18.9297 16.0107 17.9571 16.3151C16.1077 16.8929 10.2583 17.0671 8.63349 16.338C8.04984 16.0758 9.1449 15.7123 9.48942 15.6356C9.84874 15.5554 10.0538 15.57 10.0538 15.57C9.40427 15.0982 5.85551 16.4966 8.2515 16.8978C14.7849 17.9905 20.1614 16.4058 18.4669 15.6171ZM11.6197 10.4856C11.6197 10.4856 8.64463 11.2147 10.5663 11.4797C11.3779 11.5916 12.9947 11.5658 14.5019 11.4354C15.7333 11.3288 16.9694 11.1008 16.9694 11.1008C16.9694 11.1008 16.5355 11.2928 16.2211 11.5139C13.1995 12.3337 7.36325 11.9519 9.0436 11.1138C10.4643 10.4049 11.6197 10.4856 11.6197 10.4856ZM16.957 13.5626C20.0283 11.9167 18.6083 10.3347 17.6168 10.5479C17.3744 10.6002 17.2657 10.6453 17.2657 10.6453C17.2657 10.6453 17.3561 10.4993 17.528 10.4365C19.4891 9.72567 20.9969 12.5337 16.8958 13.6458C16.8956 13.6458 16.9429 13.6018 16.957 13.5626Z" fill="#3174B9"/>
<path fill-rule="evenodd" clip-rule="evenodd" d="M15.1055 1.19116C15.1055 1.19116 16.8061 2.94643 13.4921 5.64467C10.8344 7.80994 12.8861 9.04413 13.4913 10.4548C11.9396 9.01107 10.8015 7.7399 11.565 6.55711C12.6858 4.8209 15.7917 3.97891 15.1055 1.19116Z" fill="#CA3132"/>
<path fill-rule="evenodd" clip-rule="evenodd" d="M11.9218 18.0239C14.8694 18.2184 19.3967 17.9159 19.5041 16.4768C19.5041 16.4768 19.298 17.0223 17.0678 17.455C14.5516 17.9437 11.4477 17.8868 9.60736 17.5734C9.60736 17.5734 9.98447 17.8953 11.9218 18.0239Z" fill="#3174B9"/>
<path fill-rule="evenodd" clip-rule="evenodd" d="M19.3679 20.6043H19.2783V20.5524H19.5202V20.6043H19.4305V20.8631H19.3679V20.6043ZM19.8506 20.6171H19.8495L19.7604 20.863H19.7195L19.631 20.6171H19.6299V20.863H19.5704V20.5523H19.6577L19.7397 20.7721L19.8218 20.5523H19.9083V20.863H19.8507V20.6171H19.8506ZM11.4387 23.5213C11.1608 23.7698 10.8669 23.9096 10.6031 23.9096C10.2272 23.9096 10.0232 23.6766 10.0232 23.3039C10.0232 22.9003 10.2416 22.6051 11.1155 22.6051H11.4386V23.5213H11.4387ZM12.206 24.4141V21.6502C12.206 20.9438 11.8154 20.4776 10.874 20.4776C10.3247 20.4776 9.84313 20.6176 9.45163 20.7959L9.56434 21.2854C9.87274 21.1686 10.2714 21.0603 10.6628 21.0603C11.2052 21.0603 11.4386 21.2854 11.4386 21.7515V22.1009H11.1676C9.85006 22.1009 9.25554 22.6282 9.25554 23.4209C9.25554 24.1039 9.64731 24.4921 10.3848 24.4921C10.8589 24.4921 11.2131 24.2903 11.5437 23.9949L11.6039 24.4141H12.206ZM14.7667 24.4141H13.81L12.6581 20.548H13.4938L14.2087 22.9237L14.3679 23.6376C14.7286 22.6051 14.9845 21.5569 15.1126 20.548H15.9252C15.7077 21.8209 15.3158 23.2186 14.7667 24.4141ZM18.4383 23.5213C18.1595 23.7698 17.8656 23.9096 17.6023 23.9096C17.2264 23.9096 17.0227 23.6766 17.0227 23.3039C17.0227 22.9003 17.2412 22.6051 18.1147 22.6051H18.4383V23.5213ZM19.2058 24.4141V21.6502C19.2058 20.9438 18.814 20.4776 17.8735 20.4776C17.3236 20.4776 16.8422 20.6176 16.4507 20.7959L16.5635 21.2854C16.8718 21.1686 17.2714 21.0603 17.6629 21.0603C18.2044 21.0603 18.4381 21.2854 18.4381 21.7515V22.1009H18.1671C16.8494 22.1009 16.2553 22.6282 16.2553 23.4209C16.2553 24.1039 16.6463 24.4921 17.3839 24.4921C17.8584 24.4921 18.212 24.2903 18.5435 23.9949L18.6039 24.4141H19.2058ZM8.41427 25.0711C8.19564 25.4007 7.84203 25.6616 7.45541 25.8088L7.07654 25.3486C7.37108 25.1926 7.62339 24.9409 7.74086 24.7067C7.84203 24.498 7.88426 24.2296 7.88426 23.5873V19.1729H8.69972V23.5263C8.69972 24.3855 8.63318 24.7328 8.41427 25.0711Z" fill="#CA3132"/>
</g>
<defs>
<clipPath id="clip0_1_936">
<rect width="26.1756" height="27" fill="white" transform="translate(0.404663)"/>
</clipPath>
</defs>
</svg>
