<svg width="27" height="27" viewBox="0 0 27 27" fill="none" xmlns="http://www.w3.org/2000/svg">
<path d="M4.53925 12.132C4.49811 12.132 4.48782 12.108 4.50839 12.072L4.72438 11.748C4.74495 11.712 4.79638 11.688 4.83752 11.688H8.50929C8.55043 11.688 8.56072 11.724 8.54015 11.76L8.3653 12.072C8.34473 12.108 8.29331 12.144 8.26245 12.144L4.53925 12.132Z" fill="#00ACD7"/>
<path d="M2.98621 13.236C2.94507 13.236 2.93478 13.212 2.95535 13.176L3.17134 12.852C3.19191 12.816 3.24334 12.792 3.28448 12.792H7.97448C8.01562 12.792 8.03619 12.828 8.02591 12.864L7.94363 13.152C7.93334 13.2 7.8922 13.224 7.85106 13.224L2.98621 13.236Z" fill="#00ACD7"/>
<path d="M5.47522 14.34C5.43408 14.34 5.4238 14.304 5.44437 14.268L5.58836 13.968C5.60893 13.932 5.65007 13.896 5.69121 13.896H7.74823C7.78937 13.896 7.80994 13.932 7.80994 13.98L7.78937 14.268C7.78937 14.316 7.74823 14.352 7.71737 14.352L5.47522 14.34Z" fill="#00ACD7"/>
<path d="M16.1512 11.916C15.5032 12.108 15.0609 12.252 14.4233 12.444C14.269 12.492 14.2587 12.504 14.125 12.324C13.9707 12.12 13.8576 11.988 13.6416 11.868C12.9936 11.496 12.3662 11.604 11.78 12.048C11.0806 12.576 10.7206 13.356 10.7309 14.328C10.7412 15.288 11.3069 16.08 12.1194 16.212C12.8188 16.32 13.405 16.032 13.8679 15.42C13.9604 15.288 14.0427 15.144 14.1456 14.976C13.7753 14.976 13.3125 14.976 12.1605 14.976C11.9445 14.976 11.8931 14.82 11.9651 14.616C12.0988 14.244 12.3457 13.62 12.4897 13.308C12.5205 13.236 12.5925 13.116 12.7468 13.116C13.2713 13.116 15.2049 13.116 16.4906 13.116C16.47 13.44 16.47 13.764 16.4289 14.088C16.3157 14.952 16.038 15.744 15.5855 16.44C14.8449 17.58 13.8781 18.288 12.6542 18.48C11.6463 18.636 10.7103 18.408 9.88753 17.688C9.12643 17.016 8.69446 16.128 8.58132 15.024C8.44762 13.716 8.77674 12.54 9.45556 11.508C10.1858 10.392 11.1526 9.68399 12.3354 9.43199C13.3022 9.22799 14.2278 9.35999 15.0609 10.02C15.606 10.44 15.9969 11.016 16.254 11.712C16.3157 11.82 16.2746 11.88 16.1512 11.916Z" fill="#00ACD7"/>
<path d="M19.5555 18.552C18.6196 18.528 17.7659 18.216 17.0459 17.496C16.4391 16.884 16.0586 16.104 15.9352 15.18C15.75 13.824 16.0689 12.624 16.7683 11.556C17.5191 10.404 18.4242 9.80396 19.6481 9.55196C20.6972 9.33596 21.6845 9.45596 22.5793 10.164C23.3919 10.812 23.8958 11.688 24.0295 12.84C24.2044 14.46 23.8033 15.78 22.8467 16.908C22.1679 17.712 21.3348 18.216 20.3783 18.444C20.1006 18.504 19.8229 18.516 19.5555 18.552ZM22.0034 13.704C21.9931 13.548 21.9931 13.428 21.9725 13.308C21.7874 12.12 20.8514 11.448 19.8744 11.712C18.9178 11.964 18.3007 12.672 18.0745 13.8C17.8893 14.736 18.2802 15.684 19.0207 16.068C19.5864 16.356 20.152 16.32 20.6972 15.996C21.5097 15.504 21.9519 14.736 22.0034 13.704Z" fill="#00ACD7"/>
</svg>
