<svg width="34" height="29" viewBox="0 0 34 29" fill="none" xmlns="http://www.w3.org/2000/svg">
<g clip-path="url(#clip0_1_243)">
<path d="M1.76172 4.61723e-05C1.60952 -0.00355885 1.4583 0.0264451 1.31776 0.088131C1.17721 0.149817 1.05046 0.24182 0.945645 0.35823C0.846125 0.468783 0.772376 0.602245 0.730237 0.748052C0.688098 0.89386 0.678726 1.04801 0.702863 1.1983L5.18617 27.8265C5.25476 28.1633 5.43232 28.4645 5.68841 28.6784C5.9445 28.8923 6.26317 29.0057 6.58981 28.999H28.0801C28.3248 29.009 28.565 28.9274 28.7581 28.7685C28.9512 28.6096 29.0847 28.3837 29.1349 28.1309L33.6151 1.20367C33.6388 1.05372 33.6293 0.900012 33.5871 0.754622C33.545 0.609232 33.4715 0.476124 33.3723 0.365759C33.2675 0.249349 33.1408 0.157346 33.0002 0.0956603C32.8597 0.0339745 32.7085 0.00397052 32.5563 0.00757553L1.76172 4.61723e-05ZM20.6242 19.2452H13.7651L11.9076 9.74416H22.287L20.6242 19.2452Z" fill="#2684FF"/>
<path d="M32.1882 9.74414H22.2862L20.6244 19.2452H13.7653L5.6658 28.6537C5.92858 28.8732 6.25371 28.9933 6.58899 28.9946H28.0854C28.3301 29.0047 28.5703 28.923 28.7634 28.7641C28.9565 28.6053 29.09 28.3794 29.1402 28.1266L32.1882 9.74414Z" fill="url(#paint0_linear_1_243)"/>
</g>
<defs>
<linearGradient id="paint0_linear_1_243" x1="34.4691" y1="12.4008" x2="23.355" y2="28.5316" gradientUnits="userSpaceOnUse">
<stop offset="0.18" stop-color="#0052CC"/>
<stop offset="1" stop-color="#2684FF"/>
</linearGradient>
<clipPath id="clip0_1_243">
<rect width="32.9357" height="29" fill="white" transform="translate(0.692856)"/>
</clipPath>
</defs>
</svg>
