<svg width="34" height="29" viewBox="0 0 34 29" fill="none" xmlns="http://www.w3.org/2000/svg">
<path fill-rule="evenodd" clip-rule="evenodd" d="M32.9624 16.582L31.119 11.1609L27.4649 0.415743C27.4168 0.293349 27.3342 0.188534 27.2278 0.114739C27.1214 0.0409429 26.9961 0.00152588 26.8678 0.00152588C26.7395 0.00152588 26.6141 0.0409429 26.5077 0.114739C26.4014 0.188534 26.3188 0.293349 26.2706 0.415743L22.6166 11.1609H10.4898L6.83576 0.415743C6.7876 0.293349 6.70504 0.188534 6.59865 0.114739C6.49226 0.0409429 6.3669 0.00152588 6.23861 0.00152588C6.11032 0.00152588 5.98495 0.0409429 5.87856 0.114739C5.77217 0.188534 5.68961 0.293349 5.64145 0.415743L1.98738 11.1609L0.147841 16.582C0.0671805 16.826 0.0682433 17.0908 0.150859 17.3341C0.233476 17.5773 0.392883 17.7851 0.603638 17.9242L16.5537 29.001L32.5037 17.9242C32.7145 17.7851 32.8739 17.5773 32.9565 17.3341C33.0391 17.0908 33.0402 16.826 32.9595 16.582" fill="#FC6D26"/>
<path fill-rule="evenodd" clip-rule="evenodd" d="M16.5541 29L22.6179 11.1559H10.4893L16.5541 28.996V29Z" fill="#E24329"/>
<path fill-rule="evenodd" clip-rule="evenodd" d="M16.554 29.001L10.4892 11.1599H1.99064L16.554 29.001Z" fill="#FC6D26"/>
<path fill-rule="evenodd" clip-rule="evenodd" d="M1.98971 11.1599L0.147291 16.581C0.0666312 16.825 0.067694 17.0897 0.15031 17.333C0.232926 17.5763 0.392333 17.7841 0.603089 17.9232L16.5531 29L1.98971 11.1599Z" fill="#FCA326"/>
<path fill-rule="evenodd" clip-rule="evenodd" d="M1.99064 11.1599H10.4902L6.83613 0.414705C6.78797 0.292311 6.70541 0.187497 6.59903 0.113701C6.49264 0.0399053 6.36727 0.000488281 6.23898 0.000488281C6.11069 0.000488281 5.98532 0.0399053 5.87894 0.113701C5.77255 0.187497 5.68999 0.292311 5.64183 0.414705L1.99064 11.1599Z" fill="#E24329"/>
<path fill-rule="evenodd" clip-rule="evenodd" d="M16.5541 29.0009L22.6189 11.1609H31.1184L16.5541 29.0009Z" fill="#FC6D26"/>
<path fill-rule="evenodd" clip-rule="evenodd" d="M31.1175 11.1599L32.9608 16.581C33.0415 16.825 33.0404 17.0897 32.9578 17.333C32.8752 17.5763 32.7158 17.7841 32.505 17.9232L16.5541 29L31.1175 11.1599Z" fill="#FCA326"/>
<path fill-rule="evenodd" clip-rule="evenodd" d="M31.1175 11.1599H22.6179L26.272 0.414705C26.3201 0.292311 26.4027 0.187497 26.5091 0.113701C26.6155 0.0399053 26.7408 0.000488281 26.8691 0.000488281C26.9974 0.000488281 27.1228 0.0399053 27.2292 0.113701C27.3356 0.187497 27.4181 0.292311 27.4663 0.414705L31.1203 11.1599H31.1175Z" fill="#E24329"/>
</svg>
