<svg width="34" height="29" viewBox="0 0 34 29" fill="none" xmlns="http://www.w3.org/2000/svg">
<path fill-rule="evenodd" clip-rule="evenodd" d="M17.2892 0C13.3788 2.63825e-05 9.59594 1.25623 6.61758 3.54383C3.63922 5.83143 1.65972 9.00114 1.03326 12.4858C0.40681 15.9704 1.17429 19.5426 3.19838 22.5632C5.22246 25.5837 8.37107 27.8555 12.0808 28.972C12.9045 29.1019 13.2092 28.6562 13.2092 28.2657C13.2092 27.9126 13.1885 26.7377 13.1885 25.4966C9.05108 26.1842 7.98005 24.5857 7.65094 23.7496C7.28418 22.9357 6.70322 22.2149 5.95836 21.6494C5.38194 21.371 4.55822 20.6834 5.93767 20.6647C6.4649 20.7163 6.97049 20.8823 7.4114 21.1483C7.85231 21.4144 8.21547 21.7727 8.46996 22.1927C8.69515 22.5579 8.99796 22.8795 9.36104 23.1389C9.72412 23.3983 10.1403 23.5905 10.5858 23.7044C11.0313 23.8184 11.4973 23.8519 11.9572 23.8029C12.417 23.754 12.8616 23.6237 13.2656 23.4194C13.3368 22.6637 13.7097 21.9572 14.315 21.4312C10.6477 21.0594 6.82157 19.7776 6.82157 14.0908C6.79961 12.6126 7.40524 11.1829 8.51415 10.0951C8.01058 8.81093 8.06945 7.40162 8.67871 6.15535C8.67871 6.15535 10.0582 5.76486 13.2073 7.68336C15.9021 7.01427 18.7469 7.01427 21.4417 7.68336C24.5908 5.75042 25.9703 6.15535 25.9703 6.15535C26.5795 7.40162 26.6384 8.81093 26.1348 10.0951C27.2471 11.181 27.8532 12.612 27.8274 14.0908C27.8274 19.7963 23.9777 21.0594 20.3142 21.4312C20.7073 21.7909 21.0099 22.2226 21.2017 22.6972C21.3935 23.1718 21.4699 23.6781 21.4257 24.1817C21.4257 26.1698 21.405 27.7682 21.405 28.2699C21.405 28.6604 21.7134 29.1248 22.5334 28.9762C26.239 27.8526 29.3815 25.5762 31.3993 22.5537C33.4171 19.5311 34.1789 15.9594 33.5486 12.4766C32.9182 8.9938 30.9369 5.82672 27.9584 3.54117C24.9799 1.25562 21.1983 0.00049233 17.2892 0V0Z" fill="#1B1F23"/>
</svg>
